<?xml version="1.0" encoding="UTF-8"?>
<svg id="_图层_2" data-name="图层 2" xmlns="http://www.w3.org/2000/svg" viewBox="0 0 156.27 104.33">
  <defs>
    <style>
      .cls-1 {
        fill: #005fe8;
      }

      .cls-2 {
        fill: #fff;
      }

      .cls-3 {
        fill: #4545ff;
      }

      .cls-4 {
        fill: #3bc2c4;
      }
    </style>
  </defs>
  <g id="_图层_1-2" data-name="图层 1">
    <g>
      <g>
        <path class="cls-2" d="M4.54,100.3h0v3.98H0v-3.98H0v-10.57H0v-3.98H4.54v3.98h0v10.57Z"/>
        <path class="cls-2" d="M25.89,104.28h-3.76l-9.38-10.73v10.73h-4.56v-18.53h3.79l9.38,11.06v-11.06h4.54v18.53Z"/>
        <path class="cls-2" d="M34.1,93.66h8.69v3.98h-8.69v6.64h-4.56v-18.53h14.33v4.01h-9.76v3.9Z"/>
        <path class="cls-2" d="M75.03,104.28h-3.76l-9.38-10.73v10.73h-4.56v-18.53h3.79l9.38,11.06v-11.06h4.54v18.53Z"/>
        <path class="cls-2" d="M84.06,100.3h0v3.98h-4.54v-3.98h0v-10.57h0v-3.98h4.54v3.98h0v10.57Z"/>
        <path class="cls-2" d="M52.86,100.3h0v3.98h-4.54v-3.98h0v-10.57h0v-3.98h4.54v3.98h0v10.57Z"/>
        <g>
          <path class="cls-2" d="M91.32,95.49c0-5.09,3.88-8.84,9.12-8.84,2.53,0,4.82,.84,6.36,2.53l-1.17,1.17c-1.42-1.44-3.15-2.06-5.14-2.06-4.2,0-7.35,3.08-7.35,7.2s3.15,7.2,7.35,7.2c1.99,0,3.73-.62,5.14-2.09l1.17,1.17c-1.54,1.69-3.83,2.56-6.38,2.56-5.22,0-9.09-3.75-9.09-8.84Z"/>
          <path class="cls-2" d="M109.1,85.75h1.76v18.43h-1.76v-18.43Z"/>
          <path class="cls-2" d="M113.23,97.65c0-3.87,2.83-6.63,6.66-6.63s6.63,2.76,6.63,6.63-2.81,6.66-6.63,6.66-6.66-2.78-6.66-6.66Zm11.5,0c0-3.06-2.06-5.09-4.84-5.09s-4.87,2.04-4.87,5.09,2.09,5.09,4.87,5.09,4.84-2.04,4.84-5.09Z"/>
          <path class="cls-2" d="M140.65,91.12v13.07h-1.69v-2.38c-.92,1.59-2.61,2.51-4.69,2.51-3.33,0-5.51-1.86-5.51-5.61v-7.58h1.76v7.4c0,2.78,1.44,4.2,3.92,4.2,2.73,0,4.45-1.76,4.45-4.74v-6.86h1.76Z"/>
          <path class="cls-2" d="M156.27,85.75v18.43h-1.69v-2.58c-1.07,1.76-2.88,2.71-5.04,2.71-3.73,0-6.51-2.71-6.51-6.66s2.78-6.63,6.51-6.63c2.09,0,3.87,.89,4.97,2.58v-7.85h1.76Zm-1.74,11.9c0-3.06-2.09-5.09-4.84-5.09s-4.87,2.04-4.87,5.09,2.09,5.09,4.87,5.09,4.84-2.04,4.84-5.09Z"/>
        </g>
      </g>
      <g>
        <path class="cls-2" d="M114.66,30.77c-.11-3.4-.96-6.83-2.65-10.04l-.47-.89c-3.65-6.9-10.26-11.22-17.45-12.22-1.27-1.38-2.73-2.62-4.37-3.7h0C85.69,1.27,81.14,0,76.65,0c-7.75,0-15.35,3.78-19.93,10.73l-11.78,17.9h0s0,0,0,0l-.02,.04c-7.27,3.77-12.26,11.38-12.26,20.19,0,12.54,10.1,22.71,22.55,22.71h45.87c12.45,0,22.55-10.17,22.55-22.71,0-7.39-3.53-13.94-8.96-18.09Zm5.14,18.09c0,3.44-.93,6.66-2.53,9.44L57.94,29.98h43.13c3.56,0,6.88,1.03,9.72,2.77,.63,.39,1.23,.81,1.81,1.26,.03,.02,.05,.04,.08,.06,.59,.46,1.14,.96,1.67,1.49,3.36,3.42,5.45,8.11,5.45,13.3Zm-11.68-27.21l.47,.89c.98,1.85,1.61,3.78,1.94,5.73-2.88-1.34-6.08-2.12-9.46-2.12H57.91l23.91-12.63c2.84-1.5,5.89-2.26,9.07-2.26,.41,0,.81,.02,1.22,.04,1.88,.12,3.71,.5,5.44,1.13,0,0,0,0,0,0,4.48,1.62,8.27,4.85,10.58,9.21ZM60,12.89c3.69-5.61,9.92-8.96,16.65-8.96h0c4.09,0,8.05,1.28,11.42,3.65-2.74,.34-5.47,1.17-8.05,2.53l-27.86,14.71,7.85-11.93Zm41.07,54.85h-28.13s-7.36,0-7.36,0h0s-10.38,0-10.38,0c-10.33,0-18.73-8.47-18.73-18.88,0-7.34,4.18-13.7,10.26-16.82,.43-.22,.87-.41,1.32-.59,.16-.07,.31-.15,.47-.21,.57-.22,1.16-.41,1.76-.57l64.64,30.86c-3.43,3.81-8.36,6.22-13.85,6.22Z"/>
        <path class="cls-1" d="M119.8,48.86c0,3.44-.93,6.66-2.53,9.44L57.94,29.98h43.13c3.56,0,6.88,1.03,9.72,2.77,.63,.39,1.23,.81,1.81,1.26,.03,.02,.05,.04,.08,.06,.59,.46,1.14,.96,1.67,1.49,3.36,3.42,5.45,8.11,5.45,13.3Z"/>
        <path class="cls-3" d="M108.12,21.65l.47,.89c.98,1.85,1.61,3.78,1.94,5.73-2.88-1.34-6.08-2.12-9.46-2.12H57.91l23.91-12.63c2.84-1.5,5.89-2.26,9.07-2.26,.41,0,.81,.02,1.22,.04,1.88,.12,3.71,.5,5.44,1.13,0,0,0,0,0,0,4.48,1.62,8.27,4.85,10.58,9.21Z"/>
        <path class="cls-4" d="M60,12.89c3.69-5.61,9.92-8.96,16.65-8.96h0c4.09,0,8.05,1.28,11.42,3.65-2.74,.34-5.47,1.17-8.05,2.53l-27.86,14.71,7.85-11.93Z"/>
        <path class="cls-1" d="M101.07,67.74h-28.13s-7.36,0-7.36,0h0s-10.38,0-10.38,0c-10.33,0-18.73-8.47-18.73-18.88,0-7.34,4.18-13.7,10.26-16.82,.43-.22,.87-.41,1.32-.59,.16-.07,.31-.15,.47-.21,.57-.22,1.16-.41,1.76-.57l64.64,30.86c-3.43,3.81-8.36,6.22-13.85,6.22Z"/>
      </g>
    </g>
  </g>
</svg>