<?xml version="1.0" encoding="UTF-8"?>
<svg id="_图层_2" data-name="图层 2" xmlns="http://www.w3.org/2000/svg" viewBox="0 0 304.47 54.62">
  <g id="_图层_1-2" data-name="图层 1">
    <g>
      <g>
        <path d="M86.08,41.6h0v5.73h-6.53v-5.73h0v-15.21h0v-5.73h6.53v5.73h0v15.21Z"/>
        <path d="M116.81,47.34h-5.41l-13.5-15.45v15.45h-6.57V20.66h5.45l13.5,15.92v-15.92h6.53v26.67Z"/>
        <path d="M128.63,32.05h12.5v5.73h-12.5v9.55h-6.57V20.66h20.62v5.77h-14.05v5.61Z"/>
        <path d="M187.53,47.34h-5.41l-13.5-15.45v15.45h-6.57V20.66h5.45l13.5,15.92v-15.92h6.53v26.67Z"/>
        <path d="M200.53,41.6h0v5.73h-6.53v-5.73h0v-15.21h0v-5.73h6.53v5.73h0v15.21Z"/>
        <path d="M155.63,41.6h0v5.73h-6.53v-5.73h0v-15.21h0v-5.73h6.53v5.73h0v15.21Z"/>
        <g>
          <path d="M210.98,34.68c0-7.33,5.58-12.73,13.12-12.73,3.65,0,6.94,1.22,9.15,3.65l-1.68,1.68c-2.04-2.07-4.54-2.97-7.4-2.97-6.04,0-10.58,4.43-10.58,10.37s4.54,10.37,10.58,10.37c2.86,0,5.36-.89,7.4-3l1.68,1.68c-2.22,2.43-5.51,3.68-9.19,3.68-7.51,0-13.08-5.4-13.08-12.73Z"/>
          <path d="M236.58,20.67h2.54v26.53h-2.54V20.67Z"/>
          <path d="M242.51,37.79c0-5.58,4.08-9.55,9.58-9.55s9.55,3.97,9.55,9.55-4.04,9.58-9.55,9.58-9.58-4-9.58-9.58Zm16.55,0c0-4.4-2.97-7.33-6.97-7.33s-7.01,2.93-7.01,7.33,3,7.33,7.01,7.33,6.97-2.93,6.97-7.33Z"/>
          <path d="M281.98,28.39v18.81h-2.43v-3.43c-1.32,2.29-3.75,3.61-6.76,3.61-4.79,0-7.94-2.68-7.94-8.08v-10.9h2.54v10.65c0,4,2.07,6.04,5.65,6.04,3.93,0,6.4-2.54,6.4-6.83v-9.87h2.54Z"/>
          <path d="M304.47,20.67v26.53h-2.43v-3.72c-1.54,2.54-4.15,3.9-7.26,3.9-5.36,0-9.37-3.9-9.37-9.58s4-9.55,9.37-9.55c3,0,5.58,1.29,7.15,3.72v-11.3h2.54Zm-2.5,17.12c0-4.4-3-7.33-6.97-7.33s-7.01,2.93-7.01,7.33,3,7.33,7.01,7.33,6.97-2.93,6.97-7.33Z"/>
        </g>
      </g>
      <path d="M62.59,23.49c-.09-2.6-.73-5.21-2.02-7.67l-.36-.68c-2.78-5.27-7.83-8.57-13.32-9.33-.97-1.05-2.08-2-3.33-2.83h0C40.48,.97,37.01,0,33.58,0c-5.92,0-11.72,2.88-15.21,8.19l-8.99,13.66h0s0,0,0,0l-.02,.03C3.81,24.76,0,30.58,0,37.29c0,9.57,7.71,17.33,17.21,17.33H52.22c9.51,0,17.21-7.76,17.21-17.33,0-5.64-2.69-10.64-6.84-13.81Zm3.92,13.81c0,2.63-.71,5.08-1.93,7.2L19.3,22.88H52.22c2.72,0,5.25,.78,7.42,2.12,.48,.3,.94,.62,1.38,.96,.02,.02,.04,.03,.06,.05,.45,.35,.87,.73,1.27,1.14,2.57,2.61,4.16,6.19,4.16,10.15Zm-8.91-20.77l.36,.68c.74,1.41,1.23,2.89,1.48,4.38-2.2-1.03-4.64-1.61-7.22-1.61H19.28l18.25-9.64c2.16-1.14,4.49-1.72,6.92-1.72,.31,0,.62,.01,.93,.03,1.44,.09,2.83,.38,4.15,.86,0,0,0,0,0,0,3.42,1.24,6.32,3.7,8.07,7.03ZM20.87,9.84c2.82-4.28,7.57-6.84,12.71-6.84h0c3.12,0,6.14,.97,8.72,2.78-2.09,.26-4.17,.89-6.15,1.93L14.88,18.95l5.99-9.1Zm31.35,41.86H30.75s-5.61,0-5.61,0h0s-7.93,0-7.93,0c-7.88,0-14.29-6.47-14.29-14.41,0-5.6,3.19-10.45,7.83-12.84,.33-.17,.67-.31,1.01-.45,.12-.05,.24-.11,.36-.16,.44-.17,.88-.31,1.34-.44l49.33,23.55c-2.62,2.91-6.38,4.75-10.57,4.75Z"/>
    </g>
  </g>
</svg>