<?xml version="1.0" encoding="UTF-8"?>
<svg id="_图层_2" data-name="图层 2" xmlns="http://www.w3.org/2000/svg" viewBox="0 0 149.47 149.47">
  <g id="_图层_1-2" data-name="图层 1">
    <g>
      <path d="M74.74,149.47C33.53,149.47,0,115.94,0,74.73S33.53,0,74.74,0s74.73,33.53,74.73,74.73-33.53,74.73-74.73,74.73Zm0-141.37C37.99,8.1,8.1,37.99,8.1,74.73s29.89,66.64,66.64,66.64,66.64-29.89,66.64-66.64S111.48,8.1,74.74,8.1Z"/>
      <g>
        <path d="M116.92,34.26c-6.17-6.74-13.91-12.05-22.63-15.31,0,.03-.02,.05-.02,.05l-10.38,48.06-37.08-26.36-5.17,24.65,59.8,41.84,15.48-72.93"/>
        <path d="M61.67,92.74l-22.47-15.85-7.93,36.77c6.24,6.63,14,11.8,22.73,14.95l7.67-35.88Z"/>
      </g>
    </g>
  </g>
</svg>