<?xml version="1.0" encoding="UTF-8"?>
<svg id="_图层_2" data-name="图层 2" xmlns="http://www.w3.org/2000/svg" viewBox="0 0 192.8 56.14">
  <defs>
    <style>
      .cls-1 {
        fill: #00c3ff;
      }
    </style>
  </defs>
  <g id="_图层_1-2" data-name="图层 1">
    <g>
      <g>
        <path d="M28.07,56.14C12.59,56.14,0,43.55,0,28.07S12.59,0,28.07,0s28.07,12.59,28.07,28.07-12.59,28.07-28.07,28.07Zm0-53.1C14.27,3.04,3.04,14.27,3.04,28.07s11.23,25.03,25.03,25.03,25.03-11.23,25.03-25.03S41.87,3.04,28.07,3.04Z"/>
        <g>
          <path d="M43.92,12.87c-2.32-2.53-5.23-4.52-8.5-5.75,0,.01,0,.02,0,.02l-3.9,18.05-13.93-9.9-1.94,9.26,22.46,15.72,5.82-27.4"/>
          <path d="M23.17,34.84l-8.44-5.95-2.98,13.81c2.34,2.49,5.26,4.43,8.54,5.62l2.88-13.48Z"/>
        </g>
      </g>
      <g>
        <g>
          <path d="M62.27,23.54l3.83-17.16,4.49,.04-3.83,17.16-4.49-.04Z"/>
          <path d="M70.07,23.61l3.96-17.72h.43s9.49,10.12,9.49,10.12l2.11-9.46,4.14,.04-3.98,17.81h-.39s-9.53-10.12-9.53-10.12l-2.09,9.36-4.14-.04Z"/>
          <path d="M90.01,23.78l3.83-17.16,11.7,.1-.78,3.49-7.23-.06-.76,3.42,6.47,.06-.77,3.47-6.47-.06-1.51,6.78-4.47-.04Z"/>
          <path d="M104.75,23.9l3.83-17.16,4.49,.04-3.83,17.16-4.49-.04Z"/>
          <path d="M112.38,23.97l3.96-17.72h.43s9.49,10.12,9.49,10.12l2.11-9.46,4.14,.04-3.98,17.81h-.39s-9.13-10.11-9.13-10.11l-2.12,9.36-4.52-.04Z"/>
          <path d="M132.24,24.14l3.83-17.16,4.49,.04-3.83,17.16-4.49-.04Z"/>
        </g>
        <g>
          <polygon class="cls-1" points="174.5 50.19 168.26 50.19 173.38 27.35 179.62 27.35 174.5 50.19"/>
          <polygon class="cls-1" points="181.93 50.19 177.56 50.19 182.68 27.35 187.05 27.35 181.93 50.19"/>
          <polygon class="cls-1" points="187.68 50.19 185.37 50.19 190.49 27.35 192.8 27.35 187.68 50.19"/>
        </g>
        <g>
          <path class="cls-1" d="M139.62,37.23c-1.43-.01-2.57,.9-2.82,2.52l5.62,.05c-.03-1.56-1.26-2.55-2.8-2.57Z"/>
          <path class="cls-1" d="M96.49,37.04c-1.6-.01-3.13,1.17-3.15,3.41-.02,2.24,1.49,3.54,3.09,3.55,1.65,.01,3.15-1.21,3.17-3.46s-1.46-3.5-3.11-3.51Z"/>
          <path class="cls-1" d="M110.98,37.16c-1.6-.01-3.13,1.17-3.15,3.41-.02,2.24,1.49,3.54,3.09,3.55,1.65,.01,3.15-1.21,3.17-3.46s-1.47-3.5-3.11-3.51Z"/>
          <path class="cls-1" d="M82.76,36.9c-1.58-.01-3.02,1.11-3.04,3.48-.02,2.35,1.34,3.52,2.94,3.53,1.58,.01,3.11-1.13,3.13-3.48,.02-2.37-1.44-3.52-3.03-3.53Z"/>
          <path class="cls-1" d="M69.44,27.38l-.87,3.91,2.12,.02-.11,12.54,4.91,.04-.02,2.37-7.9-.07,.09-10.81-3.3,14.88,56.13-.03c-.42-.61-.71-1.32-.79-2.14l2.97,.03c.29,1.07,1.39,1.79,2.89,1.8,1.64,.01,2.93-.91,2.95-3.12l.02-1.84c-.71,1.02-2.07,1.93-3.93,1.91-3.01-.03-5.38-2.5-5.35-6.2,.03-3.7,2.45-6.05,5.46-6.02,1.86,.02,3.2,.88,3.89,1.91v-1.69s3.03,.03,3.03,.03l-.1,11.92c-.01,1.28-.34,2.46-.98,3.4l34.93-.02,5.11-22.83H69.44Zm13.19,19.13c-3.42-.03-5.98-2.44-5.95-6.16,.03-3.74,2.72-6.09,6.14-6.06,3.42,.03,6.07,2.42,6.04,6.16-.03,3.72-2.79,6.09-6.23,6.06Zm19.93-.02l-3.01-.03v-1.73c-.7,1.02-2.05,1.91-3.93,1.89-2.99-.03-5.36-2.5-5.33-6.2,.03-3.7,2.45-6.05,5.46-6.02,1.9,.02,3.2,.92,3.89,1.91v-1.69s3.03,.03,3.03,.03l-.1,11.84Zm14.48,.12l-3.03-.03v-1.75c-.7,1.08-2.03,1.93-3.89,1.91-3.01-.03-5.38-2.5-5.35-6.2,.03-3.7,2.45-6.05,5.48-6.02,1.56,.01,3.05,.75,3.85,1.87l.05-5.62,3.03,.03-.13,15.81Zm28.37-4.78l-8.65-.07c.13,1.75,1.32,2.75,2.82,2.76,1.28,.01,1.99-.62,2.38-1.41l3.23,.03c-.66,2.17-2.64,3.89-5.57,3.86-3.44-.03-5.92-2.44-5.89-6.16,.03-3.74,2.49-6.09,5.99-6.06,3.42,.03,5.81,2.38,5.78,5.9,0,.38-.03,.77-.1,1.15Zm13.5,5.14l-2.99-.03,.06-6.54c.02-1.9-1.02-2.94-2.6-2.95-1.62-.01-2.68,1-2.7,2.9l-.06,6.54-2.99-.03,.1-11.84,2.99,.03v1.47c.76-1,2.05-1.63,3.57-1.61,2.76,.02,4.71,1.83,4.68,5.1l-.06,6.94Z"/>
          <path class="cls-1" d="M125.46,37.28c-1.6-.01-3.13,1.17-3.15,3.41-.02,2.24,1.49,3.54,3.09,3.55,1.65,.01,3.15-1.21,3.17-3.46s-1.47-3.5-3.11-3.51Z"/>
        </g>
      </g>
    </g>
  </g>
</svg>