<?xml version="1.0" encoding="UTF-8"?>
<svg id="_图层_2" data-name="图层 2" xmlns="http://www.w3.org/2000/svg" viewBox="0 0 239.59 45.23">
  <defs>
    <style>
      .cls-1 {
        fill: #005fe8;
      }
    </style>
  </defs>
  <g id="_图层_1-2" data-name="图层 1">
    <g>
      <g>
        <path class="cls-1" d="M185.75,18.52v15.48h6.03v2.36h-8.96V18.52h2.93Z"/>
        <path class="cls-1" d="M199.92,21.99c2.39,0,4.03,1.13,4.9,2.28v-2.05h2.95v14.14h-2.95v-2.1c-.9,1.21-2.59,2.34-4.95,2.34-3.67,0-6.62-3-6.62-7.37s2.95-7.24,6.67-7.24Zm.62,2.54c-2.18,0-4.29,1.64-4.29,4.7s2.11,4.83,4.29,4.83,4.29-1.72,4.29-4.78-2.08-4.75-4.29-4.75Z"/>
        <path class="cls-1" d="M219.49,21.99c3.75,0,6.65,2.88,6.65,7.24s-2.93,7.37-6.65,7.37c-2.34,0-4-1.05-4.93-2.28v2.05h-2.93V17.37h2.93v6.96c.92-1.28,2.7-2.34,4.93-2.34Zm-.64,2.54c-2.18,0-4.29,1.72-4.29,4.75s2.11,4.78,4.29,4.78,4.31-1.77,4.31-4.83-2.11-4.7-4.31-4.7Z"/>
        <path class="cls-1" d="M234.17,36.6c-3.39,0-5.78-2-5.9-4.57h3.03c.1,1.16,1.21,2.1,2.82,2.1s2.59-.72,2.59-1.69c0-2.77-8.21-1.18-8.21-6.37,0-2.26,2.11-4.08,5.44-4.08s5.31,1.72,5.47,4.54h-2.93c-.1-1.23-1.05-2.08-2.64-2.08s-2.39,.64-2.39,1.59c0,2.85,7.98,1.26,8.14,6.37,0,2.39-2.08,4.18-5.42,4.18Z"/>
      </g>
      <g>
        <path d="M50.25,36.53l5.99-27.97h7.31l-5.99,27.97h-7.31Z"/>
        <path d="M62.94,36.53l6.19-28.88h.7l15.58,16.32,3.3-15.41h6.74l-6.22,29.03h-.63l-15.64-16.32-3.27,15.26h-6.74Z"/>
        <path d="M95.38,36.53l5.99-27.97h19.04l-1.22,5.69h-11.77l-1.19,5.58h10.52l-1.21,5.65h-10.52l-2.37,11.05h-7.27Z"/>
        <path d="M119.35,36.53l5.99-27.97h7.31l-5.99,27.97h-7.31Z"/>
        <path d="M131.77,36.53l6.19-28.88h.7l15.58,16.32,3.3-15.41h6.74l-6.22,29.03h-.63l-14.99-16.32-3.32,15.26h-7.35Z"/>
        <path d="M164.08,36.53l5.99-27.97h7.31l-5.99,27.97h-7.31Z"/>
      </g>
      <g>
        <path d="M22.62,45.23C10.15,45.23,0,35.09,0,22.62S10.15,0,22.62,0s22.62,10.15,22.62,22.62-10.15,22.62-22.62,22.62Zm0-42.78C11.5,2.45,2.45,11.5,2.45,22.62s9.05,20.17,20.17,20.17,20.17-9.05,20.17-20.17S33.74,2.45,22.62,2.45Z"/>
        <g>
          <path d="M35.38,10.37c-1.87-2.04-4.21-3.65-6.85-4.63,0,.01,0,.02,0,.02l-3.14,14.54-11.22-7.98-1.56,7.46,18.1,12.66,4.69-22.07"/>
          <path d="M18.66,28.07l-6.8-4.8-2.4,11.13c1.89,2.01,4.24,3.57,6.88,4.53l2.32-10.86Z"/>
        </g>
      </g>
    </g>
  </g>
</svg>