<?xml version="1.0" encoding="UTF-8"?>
<svg id="_图层_2" data-name="图层 2" xmlns="http://www.w3.org/2000/svg" viewBox="0 0 239.59 72.47">
  <defs>
    <style>
      .cls-1 {
        fill: #005fe8;
      }
    </style>
  </defs>
  <g id="_图层_1-2" data-name="图层 1">
    <g>
      <g>
        <path d="M6.74,66.16c-.21-.53-.74-1.53-1.19-2.33v8.59h-1.09v-7.79c-.55,1.77-1.26,3.48-2,4.54-.13-.35-.42-.87-.63-1.16,1.01-1.34,2.03-3.88,2.51-6.07H2.31v-1.13h2.14v-3.09h1.09v3.09h1.79v1.13h-1.79v.45c.39,.5,1.64,2.43,1.9,2.91l-.71,.85Zm9.43-2.77c-.52,2.43-1.38,4.38-2.56,5.92,.92,.89,1.96,1.61,3.15,2.09-.27,.23-.61,.66-.81,.98-1.17-.53-2.2-1.27-3.11-2.19-.88,.95-1.88,1.69-2.96,2.25-.16-.27-.56-.74-.84-.9,1.13-.55,2.16-1.27,3.04-2.22-.87-1.08-1.59-2.37-2.17-3.77-.48,2.87-1.34,5.15-2.95,6.89-.19-.18-.71-.56-.98-.72,2.53-2.45,3.14-6.52,3.33-11.85h-1.83v-1.11h7.07c-.34,1.37-.77,3.04-1.16,4.36h1.82l.23-.05,.72,.31Zm-5.71-3.51c-.05,1.18-.13,2.3-.23,3.33,.58,1.96,1.43,3.77,2.61,5.23,.87-1.18,1.55-2.58,1.96-4.25h-2.86c.4-1.14,.85-2.82,1.21-4.31h-2.69Z"/>
        <path d="M30.63,58.8c-.48,1.3-1.06,2.88-1.61,4.15,1.16,1.34,1.45,2.51,1.45,3.51,0,.84-.19,1.54-.63,1.85-.23,.18-.53,.27-.85,.31-.31,.05-.72,.05-1.06,.03-.02-.31-.13-.76-.31-1.06,.37,.03,.68,.05,.93,.02,.19-.02,.37-.05,.5-.14,.24-.18,.34-.63,.34-1.11,0-.87-.29-1.98-1.45-3.27,.47-1.16,.95-2.54,1.27-3.61h-2.33v12.92h-1.06v-14.02h3.85l.18-.05,.79,.47Zm8.79,8.02c-.82,.68-1.88,1.38-2.77,1.92,.79,1.14,1.82,2.03,3.11,2.56-.26,.23-.63,.71-.82,1.01-2.51-1.19-4.01-3.65-4.81-6.84h-1.55v5.3l2.83-.69c0,.35,.02,.84,.06,1.09-3.32,.9-3.8,1.06-4.12,1.27-.08-.26-.34-.76-.53-.98,.26-.13,.6-.47,.6-1.13v-11.89h7.03v7.03h-3.28c.24,.87,.55,1.69,.95,2.41,.84-.56,1.85-1.32,2.51-1.9l.79,.84Zm-6.84-7.32v1.93h4.72v-1.93h-4.72Zm0,4.92h4.72v-2h-4.72v2Z"/>
        <path d="M53.44,67.35c-.27-.53-.95-1.58-1.5-2.4v7.45h-1.17v-7.11c-.66,1.61-1.5,3.2-2.33,4.2-.11-.32-.4-.81-.6-1.08,1.01-1.14,2.14-3.2,2.77-5.05h-2.54v-1.13h2.7v-2.43c-.74,.14-1.5,.27-2.2,.37-.06-.26-.23-.68-.35-.93,1.8-.29,3.91-.76,5.12-1.29l.72,.95c-.6,.24-1.34,.47-2.11,.64v2.69h2.37v1.13h-2.37v.29c.5,.56,1.88,2.33,2.22,2.77l-.72,.93Zm7.28,.85v4.2h-1.17v-4.01l-5.25,.87-.19-1.14,5.44-.87v-9.53h1.17v9.34l1.88-.29,.18,1.09-2.06,.34Zm-3.11-2.14c-.58-.71-1.82-1.71-2.83-2.35l.74-.71c1.03,.63,2.29,1.58,2.88,2.27l-.79,.79Zm.35-4.25c-.5-.68-1.61-1.63-2.56-2.29l.76-.69c.97,.61,2.09,1.53,2.62,2.2l-.82,.77Z"/>
        <path d="M76.34,65.85c-.64,.19-1.3,.39-1.93,.58v4.55c0,.68-.18,1-.6,1.19-.4,.19-1.08,.23-2.17,.21-.05-.31-.23-.77-.39-1.09,.77,.02,1.46,.02,1.66,0,.24,0,.32-.08,.32-.31v-4.2l-1.93,.56-.34-1.17c.64-.14,1.42-.34,2.27-.58v-3.51h-2.06v-1.13h2.06v-3.22h1.17v3.22h1.79v1.13h-1.79v3.19c.58-.16,1.19-.34,1.79-.51l.14,1.09Zm8.56-1.8c-.68,2.2-1.82,3.96-3.27,5.3,1.16,.95,2.54,1.64,4.15,2.08-.26,.24-.6,.71-.77,1.03-1.67-.51-3.11-1.29-4.3-2.33-1.37,1.05-2.93,1.79-4.57,2.3-.13-.32-.42-.82-.64-1.08,1.56-.42,3.06-1.09,4.36-2.04-1.13-1.21-2.01-2.69-2.64-4.41l.05-.02h-.53v-1.11h3.44v-2.4h-3.77v-1.11h3.77v-2.53h1.17v2.53h3.85v1.11h-3.85v2.4h2.56l.19-.05,.79,.34Zm-6.5,.82c.55,1.4,1.35,2.67,2.37,3.7,1.11-1,2.01-2.24,2.59-3.7h-4.96Z"/>
        <path d="M96.72,65.35c0-.68,.48-1.14,1.06-1.14s1.06,.47,1.06,1.14-.48,1.11-1.06,1.11-1.06-.47-1.06-1.11Z"/>
        <path d="M115.65,68.11c.06,.32,.26,.77,.37,1-2.99,2.29-3.41,2.64-3.65,2.96-.14-.21-.55-.59-.77-.74,.34-.29,1.01-.97,1.01-1.84v-5.57h-2.51v-1.14h3.64v6.74l1.92-1.42Zm-1.69-6.86c-.55-.63-1.62-1.72-2.45-2.48l.74-.77c.82,.72,1.91,1.77,2.46,2.37l-.76,.89Zm10.67,9.51v1.17h-9.74v-1.17h3.86v-12.91h1.19v5.15h3.52v1.14h-3.52v6.61h4.68Z"/>
        <path d="M136.18,66.26v4.68c0,.64-.14,.97-.53,1.17-.37,.19-.97,.24-1.9,.24-.03-.32-.19-.81-.35-1.16,.63,.02,1.21,.02,1.37,.02,.19,0,.27-.06,.27-.27v-4.25l-1.71,.66-.32-1.14c.56-.18,1.27-.42,2.03-.71v-3.43h-1.92v-1.11h1.92v-3.2h1.14v3.2h1.61v1.11h-1.61v3.01l1.58-.61,.21,1.08-1.79,.71Zm10.75,.58c-.66,1.48-1.72,2.61-3.06,3.48,1.16,.52,2.48,.89,3.88,1.11-.26,.24-.55,.68-.71,.98-1.56-.31-3.01-.79-4.28-1.46-1.51,.76-3.22,1.24-5.01,1.53-.08-.29-.32-.74-.51-.98,1.56-.23,3.11-.61,4.46-1.17-1.09-.74-2.01-1.66-2.67-2.72l.11-.05h-.71v-1.01h3.75v-1.56h-3.54v-5.49c.92-.31,1.98-.76,2.58-1.16l.85,.79c-.69,.39-1.56,.71-2.38,.95v1.48h1.72v.92h-1.72v1.51h2.49v-6.23h1.09v6.23h2.64v-1.53h-1.93v-.92h1.93v-1.47h-2.01v-1h3.09v5.91h-3.72v1.56h2.74l.21-.06,.71,.37Zm-6.7,.71c.61,.89,1.5,1.63,2.54,2.22,1.05-.58,1.91-1.3,2.53-2.22h-5.07Z"/>
        <path d="M161.13,69.39c-1.05,1.01-2.56,2.08-3.83,2.72-.19-.21-.64-.6-.92-.79,1.32-.58,2.75-1.48,3.64-2.35l1.11,.42Zm3.07-1.26v2.9c0,.63-.14,.93-.66,1.13-.51,.18-1.3,.19-2.48,.19-.06-.35-.26-.79-.43-1.11,.98,.03,1.84,.03,2.08,.02,.27-.02,.34-.06,.34-.26v-2.8c-4.65,.31-5.26,.37-5.7,.5-.05-.21-.19-.76-.32-1.03,.53-.06,1.24-.29,2.17-.68,.5-.18,1.64-.66,2.96-1.3-2.96,.19-3.4,.26-3.65,.35-.05-.21-.21-.76-.32-1.03,.32-.05,.69-.19,1.16-.43,.43-.21,1.87-.98,3.01-1.87h-4.76v1.96h-1.13v-2.99h6.31v-1.5h-6.15v-1.05h6.15v-1.42h1.22v1.42h6.15v1.05h-6.15v1.5h6.36v2.99h-1.17v-1.96h-6.12l.48,.37c-1,.72-2.11,1.38-3.22,1.92l3.59-.21c.77-.4,1.54-.85,2.25-1.3l.84,.72c-2.17,1.3-4.44,2.4-6.68,3.24l7-.37c-.44-.42-.89-.84-1.3-1.17l.85-.53c1.13,.92,2.56,2.27,3.24,3.14l-.9,.63c-.26-.35-.63-.79-1.06-1.26l-3.94,.26Zm2.2,.76c1.34,.69,3.06,1.75,3.96,2.49l-.95,.68c-.82-.72-2.54-1.83-3.91-2.57l.9-.6Z"/>
        <path d="M186.93,67.21c-.19,1-.63,1.92-1.43,2.74,2.03,.92,4.8,1.16,8.37,1.26-.21,.29-.43,.79-.5,1.17-3.72-.16-6.65-.51-8.84-1.67-1.08,.71-2.58,1.3-4.67,1.74-.13-.27-.45-.77-.71-1.05,1.92-.37,3.28-.82,4.27-1.38-.77-.59-1.43-1.34-1.98-2.27l1-.4c.55,.84,1.19,1.5,1.95,2,.74-.63,1.11-1.35,1.3-2.12h-4.78v-6.18h4.97v-1.35h-6.44v-1.08h13.91v1.08h-6.24v1.35h5.23v6.18h-5.41Zm-4.88-3.57h3.83v-1.61h-3.83v1.61Zm3.8,2.58c.03-.32,.03-.66,.03-.98v-.64h-3.83v1.63h3.8Zm5.31-1.63h-4.06v.66c0,.32-.02,.66-.03,.97h4.09v-1.63Zm-4.06-2.56v1.61h4.06v-1.61h-4.06Z"/>
        <path d="M204.82,60.08c-.48,.77-1.05,1.46-1.59,2-.23-.19-.69-.51-1-.66,1.08-.9,2.01-2.29,2.51-3.72l1.14,.27c-.14,.37-.31,.74-.48,1.09h3.86v1.01h-2.24c.29,.51,.56,1.05,.69,1.45l-1.05,.4c-.14-.48-.5-1.24-.85-1.85h-1Zm-1.67,3.85h1.16v8.5h-1.16v-8.5Zm1.74-2.24c.61,.6,1.34,1.43,1.66,2l-.95,.61c-.29-.55-.98-1.42-1.61-2.03l.9-.58Zm2.57,8.56v.81h-1.11v-6.31h6.2v5.5h-5.09Zm8.26,.74c0,.71-.19,1.03-.74,1.22-.53,.18-1.46,.16-2.93,.16-.06-.31-.23-.74-.4-1.05,1.11,.03,2.2,.03,2.49,0,.32,0,.4-.08,.4-.34v-7.76h-7.52v-1.08h8.69v8.84Zm-8.26-5.31v1.32h3.94v-1.32h-3.94Zm3.94,3.62v-1.42h-3.94v1.42h3.94Zm4.88-10.24v1.01h-2.59c.34,.5,.63,1,.79,1.38l-1.05,.47c-.18-.48-.59-1.24-1.05-1.85h-1.22c-.39,.66-.8,1.26-1.27,1.71-.21-.18-.69-.5-.97-.66,.88-.84,1.62-2.11,2.03-3.41l1.13,.26c-.1,.37-.24,.74-.4,1.09h4.6Z"/>
        <path d="M239.59,69.56h-6.58v2.86h-1.21v-2.86h-6.49v-1.11h6.49v-1.53h-4.97v-6.41h2.96c-.35-.64-.98-1.56-1.56-2.22l1-.48c.68,.72,1.42,1.71,1.74,2.37l-.66,.34h3.88c.56-.77,1.22-1.9,1.61-2.7l1.27,.43c-.47,.76-1.05,1.59-1.55,2.27h2.69v6.41h-5.2v1.53h6.58v1.11Zm-11.59-6.34h3.8v-1.69h-3.8v1.69Zm3.8,2.69v-1.72h-3.8v1.72h3.8Zm5.2-4.38h-3.99v1.69h3.99v-1.69Zm0,2.66h-3.99v1.72h3.99v-1.72Z"/>
      </g>
      <g>
        <path class="cls-1" d="M185.75,18.52v15.48h6.03v2.36h-8.96V18.52h2.93Z"/>
        <path class="cls-1" d="M199.92,21.99c2.39,0,4.03,1.13,4.9,2.28v-2.05h2.95v14.14h-2.95v-2.1c-.9,1.21-2.59,2.34-4.95,2.34-3.67,0-6.62-3-6.62-7.37s2.95-7.24,6.67-7.24Zm.62,2.54c-2.18,0-4.29,1.64-4.29,4.7s2.11,4.83,4.29,4.83,4.29-1.72,4.29-4.78-2.08-4.75-4.29-4.75Z"/>
        <path class="cls-1" d="M219.49,21.99c3.75,0,6.65,2.88,6.65,7.24s-2.93,7.37-6.65,7.37c-2.34,0-4-1.05-4.93-2.28v2.05h-2.93V17.37h2.93v6.96c.92-1.28,2.7-2.34,4.93-2.34Zm-.64,2.54c-2.18,0-4.29,1.72-4.29,4.75s2.11,4.78,4.29,4.78,4.31-1.77,4.31-4.83-2.11-4.7-4.31-4.7Z"/>
        <path class="cls-1" d="M234.17,36.6c-3.39,0-5.78-2-5.9-4.57h3.03c.1,1.16,1.21,2.1,2.82,2.1s2.59-.72,2.59-1.69c0-2.77-8.21-1.18-8.21-6.37,0-2.26,2.11-4.08,5.44-4.08s5.31,1.72,5.47,4.54h-2.93c-.1-1.23-1.05-2.08-2.64-2.08s-2.39,.64-2.39,1.59c0,2.85,7.98,1.26,8.14,6.37,0,2.39-2.08,4.18-5.42,4.18Z"/>
      </g>
      <g>
        <path d="M50.25,36.53l5.99-27.97h7.31l-5.99,27.97h-7.31Z"/>
        <path d="M62.94,36.53l6.19-28.88h.7l15.58,16.32,3.3-15.41h6.74l-6.22,29.03h-.63l-15.64-16.32-3.27,15.26h-6.74Z"/>
        <path d="M95.38,36.53l5.99-27.97h19.04l-1.22,5.69h-11.77l-1.19,5.58h10.52l-1.21,5.65h-10.52l-2.37,11.05h-7.27Z"/>
        <path d="M119.35,36.53l5.99-27.97h7.31l-5.99,27.97h-7.31Z"/>
        <path d="M131.77,36.53l6.19-28.88h.7l15.58,16.32,3.3-15.41h6.74l-6.22,29.03h-.63l-14.99-16.32-3.32,15.26h-7.35Z"/>
        <path d="M164.08,36.53l5.99-27.97h7.31l-5.99,27.97h-7.31Z"/>
      </g>
      <g>
        <path d="M22.62,45.23C10.15,45.23,0,35.09,0,22.62S10.15,0,22.62,0s22.62,10.15,22.62,22.62-10.15,22.62-22.62,22.62Zm0-42.78C11.5,2.45,2.45,11.5,2.45,22.62s9.05,20.17,20.17,20.17,20.17-9.05,20.17-20.17S33.74,2.45,22.62,2.45Z"/>
        <g>
          <path d="M35.38,10.37c-1.87-2.04-4.21-3.65-6.85-4.63,0,.01,0,.02,0,.02l-3.14,14.54-11.22-7.98-1.56,7.46,18.1,12.66,4.69-22.07"/>
          <path d="M18.66,28.07l-6.8-4.8-2.4,11.13c1.89,2.01,4.24,3.57,6.88,4.53l2.32-10.86Z"/>
        </g>
      </g>
    </g>
  </g>
</svg>